<svg xmlns="http://www.w3.org/2000/svg" xmlns:xlink="http://www.w3.org/1999/xlink" version="1.1" width="256" height="256" viewBox="0 0 256 256" xml:space="preserve">

<defs>
</defs>
<g style="stroke: none; stroke-width: 0; stroke-dasharray: none; stroke-linecap: butt; stroke-linejoin: miter; stroke-miterlimit: 10; fill: none; fill-rule: nonzero; opacity: 1;" transform="translate(1.4065934065934016 1.4065934065934016) scale(2.81 2.81)" >
	<circle cx="45" cy="45" r="45" style="stroke: none; stroke-width: 1; stroke-dasharray: none; stroke-linecap: butt; stroke-linejoin: miter; stroke-miterlimit: 10; fill: rgb(0,150,136); fill-rule: nonzero; opacity: 1;" transform="  matrix(1 0 0 1 0 0) "/>
	<path d="M 12.262 45.108 c 0 3.59 2.91 6.5 6.5 6.5 h 52.475 c 3.59 0 6.5 -2.91 6.5 -6.5 s -2.91 -6.5 -6.5 -6.5 H 18.762 C 15.172 38.608 12.262 41.518 12.262 45.108 z" style="stroke: none; stroke-width: 1; stroke-dasharray: none; stroke-linecap: butt; stroke-linejoin: miter; stroke-miterlimit: 10; fill: rgb(255,255,255); fill-rule: nonzero; opacity: 1;" transform=" matrix(1 0 0 1 0 0) " stroke-linecap="round" />
	<path d="M 12.262 45 c 0 1.664 0.635 3.327 1.903 4.596 l 19.199 19.2 c 2.539 2.539 6.654 2.539 9.192 0 c 2.539 -2.538 2.538 -6.654 0.001 -9.192 L 27.955 45 l 14.604 -14.603 c 2.537 -2.539 2.537 -6.654 0 -9.193 c -2.539 -2.538 -6.654 -2.538 -9.193 0 l -19.199 19.2 C 12.897 41.672 12.262 43.336 12.262 45 z" style="stroke: none; stroke-width: 1; stroke-dasharray: none; stroke-linecap: butt; stroke-linejoin: miter; stroke-miterlimit: 10; fill: rgb(255,255,255); fill-rule: nonzero; opacity: 1;" transform=" matrix(1 0 0 1 0 0) " stroke-linecap="round" />
</g>
</svg>