<svg id="visual" viewBox="0 0 900 600" width="900" height="600" xmlns="http://www.w3.org/2000/svg" xmlns:xlink="http://www.w3.org/1999/xlink" version="1.1"><path d="M0 301L82 301L82 145L164 145L164 223L245 223L245 133L327 133L327 199L409 199L409 247L491 247L491 181L573 181L573 187L655 187L655 205L736 205L736 223L818 223L818 127L900 127L900 145L900 0L900 0L818 0L818 0L736 0L736 0L655 0L655 0L573 0L573 0L491 0L491 0L409 0L409 0L327 0L327 0L245 0L245 0L164 0L164 0L82 0L82 0L0 0Z" fill="#fa7268"></path><path d="M0 349L82 349L82 241L164 241L164 301L245 301L245 253L327 253L327 241L409 241L409 325L491 325L491 301L573 301L573 235L655 235L655 313L736 313L736 271L818 271L818 199L900 199L900 193L900 143L900 125L818 125L818 221L736 221L736 203L655 203L655 185L573 185L573 179L491 179L491 245L409 245L409 197L327 197L327 131L245 131L245 221L164 221L164 143L82 143L82 299L0 299Z" fill="#ea5e66"></path><path d="M0 463L82 463L82 433L164 433L164 427L245 427L245 421L327 421L327 451L409 451L409 421L491 421L491 397L573 397L573 385L655 385L655 391L736 391L736 469L818 469L818 409L900 409L900 439L900 191L900 197L818 197L818 269L736 269L736 311L655 311L655 233L573 233L573 299L491 299L491 323L409 323L409 239L327 239L327 251L245 251L245 299L164 299L164 239L82 239L82 347L0 347Z" fill="#d84a64"></path><path d="M0 505L82 505L82 499L164 499L164 511L245 511L245 493L327 493L327 535L409 535L409 487L491 487L491 463L573 463L573 481L655 481L655 445L736 445L736 523L818 523L818 481L900 481L900 517L900 437L900 407L818 407L818 467L736 467L736 389L655 389L655 383L573 383L573 395L491 395L491 419L409 419L409 449L327 449L327 419L245 419L245 425L164 425L164 431L82 431L82 461L0 461Z" fill="#c53762"></path><path d="M0 601L82 601L82 601L164 601L164 601L245 601L245 601L327 601L327 601L409 601L409 601L491 601L491 601L573 601L573 601L655 601L655 601L736 601L736 601L818 601L818 601L900 601L900 601L900 515L900 479L818 479L818 521L736 521L736 443L655 443L655 479L573 479L573 461L491 461L491 485L409 485L409 533L327 533L327 491L245 491L245 509L164 509L164 497L82 497L82 503L0 503Z" fill="#b0235f"></path></svg>